IMG]http://cache.daylife.com/imageserve/0e8A5j7cxm064/1000x.jpg[/IMG]

[IMG]http://cache.daylife.com/imageserve/0g612HRg074QO/x999.jpg[/IMG]

Media info:

General
ID                               : 1 (0x1)
Complete name                    : E:\\ATP.2011.Doubles.Indian.Wells.SF.Match2.Lopez.Nadal.vs.Federer.Wawrinka.NOCOMM.1080i.ts
Format                           : MPEG-TS
File size                        : 2.31 GiB
Duration                         : 1h 5mn
Overall bit rate                 : 5 028 Kbps

Video
ID                               : 164 (0xA4)
Menu ID                          : 1 (0x1)
Format                           : AVC
Format/Info                      : Advanced Video Codec
Format profile                   : High@L4.0
Format settings, CABAC           : Yes
Format settings, ReFrames        : 3 frames
Format settings, GOP             : M=1, N=40
Codec ID                         : 27
Duration                         : 1h 5mn
Bit rate                         : 4 618 Kbps
Width                            : 1 920 pixels
Height                           : 1 080 pixels
Display aspect ratio             : 16:9
Frame rate                       : 25.000 fps
Standard                         : Component
Color space                      : YUV
Chroma subsampling               : 4:2:0
Bit depth                        : 8 bits
Scan type                        : Interlaced
Scan order                       : Top Field First
Bits/(Pixel*Frame)               : 0.089
Stream size                      : 2.12 GiB (92%)
Color primaries                  : BT.709-5, BT.1361, IEC 61966-2-4, SMPTE RP177
Transfer characteristics         : BT.709-5, BT.1361
Matrix coefficients              : BT.709-5, BT.1361, IEC 61966-2-4 709, SMPTE RP177

Audio
ID                               : 409 (0x199)
Menu ID                          : 1 (0x1)
Format                           : MPEG Audio
Format version                   : Version 1
Format profile                   : Layer 2
Codec ID                         : 3
Duration                         : 1h 5mn
Bit rate mode                    : Constant
Bit rate                         : 160 Kbps
Channel(s)                       : 2 channels
Sampling rate                    : 48.0 KHz
Compression mode                 : Lossy
Stream size                      : 75.4 MiB (3%)

